<svg xmlns="http://www.w3.org/2000/svg" width="636.237" height="295.089" viewBox="0 0 636.237 295.089"><defs><style>.a{opacity:0.59;}.b{fill:#fff;}</style></defs><g class="a" transform="translate(34.659 -67.243)"><path class="b" d="M353.8,200.326a12.375,12.375,0,0,0-11.662-8.237c-.148,0-.3.006-.443.011a12.381,12.381,0,0,0-15.5-8.312,12.371,12.371,0,0,0-22.794,3.086,8.366,8.366,0,0,0-7.428,5.108,12.372,12.372,0,0,0-16.989,8.344Z"/><path class="b" d="M233.2,238.934a12.375,12.375,0,0,0-11.662-8.238c-.149,0-.3.006-.444.011a12.38,12.38,0,0,0-15.5-8.312,12.371,12.371,0,0,0-22.794,3.086,8.366,8.366,0,0,0-7.428,5.108,12.372,12.372,0,0,0-16.989,8.345Z" transform="translate(6 9)"/><path class="b" d="M481.422,260.163a13.514,13.514,0,0,0-12.736-9c-.162,0-.323.007-.484.013a13.521,13.521,0,0,0-16.925-9.078,13.51,13.51,0,0,0-24.894,3.371,9.136,9.136,0,0,0-8.113,5.578,13.51,13.51,0,0,0-18.553,9.113Z" transform="translate(120.156 57)"/><path class="b" d="M100.283,278.332a13.514,13.514,0,0,0-12.735-9c-.163,0-.324.007-.485.013a13.521,13.521,0,0,0-16.925-9.078,13.511,13.511,0,0,0-24.894,3.371,9.135,9.135,0,0,0-8.112,5.578,13.511,13.511,0,0,0-18.554,9.113Z" transform="translate(-53.237 84)"/><path class="b" d="M117.91,156.887a11.721,11.721,0,0,0-11.046-7.8c-.141,0-.28,0-.42.01a11.727,11.727,0,0,0-14.679-7.873,11.718,11.718,0,0,0-21.591,2.923,7.923,7.923,0,0,0-7.036,4.839,11.719,11.719,0,0,0-16.092,7.9Z" transform="translate(-23.332 -68)"/><path class="b" d="M456.456,126.035a12.375,12.375,0,0,0-11.662-8.238c-.149,0-.3.006-.443.011a12.381,12.381,0,0,0-15.5-8.312,12.371,12.371,0,0,0-22.794,3.087,8.364,8.364,0,0,0-7.428,5.107,12.372,12.372,0,0,0-16.989,8.345Z" transform="translate(71 10)"/></g></svg>